# xmcd CD database file generated by Grip 2.96
# 
# Track frame offsets:
#       150
#       12853
#       25856
#       38493
#       53081
#       67621
#       82190
#       94537
#       116587
#       133837
#       146625
#       165253
# 
# Disc length: 2401 seconds
# 
# Revision: 0
# Processed by: cddbd v1.4b42PL1 Copyright (c) Steve Scherf et al.
# Submitted via: Grip 2.96
# 
DISCID=8d095f0c
DTITLE=Roundhouse - Breakin' New Ground
DYEAR=1900
DGENRE=
TTITLE0=Breaking new ground
TTITLE1=i'll be rested
TTITLE2=rose of a lifetime
TTITLE3=highway of pain
TTITLE4=clueless
TTITLE5=up on the roof
TTITLE6=time of what you've done
TTITLE7=can't you see?
TTITLE8=one more day in the rain
TTITLE9=nine pound hammer
TTITLE10=dixie train
TTITLE11=Rider
EXTD=
EXTT0=
EXTT1=
EXTT2=
EXTT3=
EXTT4=
EXTT5=
EXTT6=
EXTT7=
EXTT8=
EXTT9=
EXTT10=
EXTT11=
PLAYORDER=
